<svg enable-background="new 0 0 508 508" version="1.1" viewBox="0 0 508 508" xml:space="preserve" xmlns="http://www.w3.org/2000/svg">
<path d="m463 275.7c0.7-7.1 0.6-37.2-0.2-44.7l41.5-29-17.8-54.2-50.7 1.2c-7.5-12.9-16.3-24.9-26.3-35.9l16.6-48-46.2-33.5-40.3 30.7c-13.5-6-27.7-10.8-42.5-13.9l-14.6-48.4h-57.1l-14.6 48.4c-15.2 3.2-29.8 8.2-43.6 14.4l-40.5-30.4-46 33.8 16.9 47.8c-9.9 11.1-18.7 23.1-26.1 36.1l-50.7-0.9-17.4 54.4 41.6 28.7c-0.7 7.1-0.6 37.2 0.2 44.7l-41.5 29 17.8 54.2 50.7-1.2c7.5 12.9 16.3 24.9 26.3 35.9l-16.6 48 46.2 33.5 40.3-30.7c13.5 6 27.7 10.8 42.5 13.9l14.6 48.4h57.1l14.6-48.4c15.2-3.2 29.8-8.2 43.6-14.4l40.5 30.4 46-33.8-16.9-47.8c9.9-11.1 18.7-23.1 26.1-36.1l50.7 0.9 17.4-54.3-41.6-28.8z" fill="#41cd52"/>
<path d="m436.74 254c0 24.634-4.9498 48.232-13.929 69.758-18.418 44.894-54.333 80.578-99.226 98.996-21.411 8.9787-45.009 13.929-69.528 13.929-100.84 0-182.8-81.845-182.8-182.68 0-100.84 82.075-182.68 182.8-182.68 100.72 0 182.68 81.845 182.68 182.68z" fill="#fff" stroke="#419652" stroke-width="15.142"/>
<g transform="matrix(.96832 0 0 .96832 8.0474 30.129)"><g transform="translate(554.58 78.114)" stroke-width=".46924"><path d="m-379.18 130.18h186.99v128.94c-10.042 10.075-20.116 20.116-30.214 30.13h-186.57v-129.33c9.8916-9.9526 19.868-19.83 29.797-29.745z" fill="#41cd52"/><path d="m-351.56 163.65c7.0996-4.6971 15.879-5.8842 24.227-5.8092 7.9489 0.0985 16.292 1.4922 22.88 6.2362 4.7862 3.3644 7.8973 8.5589 9.9713 13.932 3.3551 8.8217 4.3405 18.347 4.4531 27.723 0.0141 9.4411-0.41293 19.089-3.5381 28.084-2.0928 6.1189-6.0766 11.553-11.332 15.325 3.7821 6.1283 7.6392 12.21 11.421 18.338-4.7534 2.1913-9.4927 4.3968-14.251 6.5787-4.0495-6.682-8.0803-13.378-12.144-20.051-5.4948 0.90094-11.116 0.83055-16.639 0.22054-6.6163-0.79301-13.359-2.8107-18.465-7.2638-3.9228-3.3973-6.3863-8.1507-8.0709-12.984-2.7591-8.1741-3.5005-16.874-3.6272-25.452-0.0657-9.2722 0.52554-18.69 3.3222-27.587 2.1632-6.6914 5.7435-13.369 11.792-17.291z" fill="#fff"/><path d="m-270.96 163.35c4.9739-5e-3 9.9479-5e-3 14.922 0 0.0141 6.5787-5e-3 13.153 9e-3 19.731 6.3582 9e-3 12.716 0 19.075 5e-3 -0.10793 4.2701-0.22524 8.5401-0.34724 12.81-6.3535 0.0141-12.702-5e-3 -19.056 9e-3 0.0141 10.783-0.0329 21.566 0.0235 32.349 0.122 2.9515 0.0563 6.0673 1.3561 8.7935 0.94786 2.1022 3.5005 2.6418 5.5792 2.7122 3.9181-0.0141 7.8316-0.244 11.75-0.31439 0.23931 3.9228 0.46923 7.8504 0.69447 11.773-7.794 1.3092-15.973 2.8764-23.715 0.42701-3.2612-0.96663-6.3019-3.1298-7.6251-6.3535-2.3697-5.4854-2.562-11.59-2.6653-17.479-9e-3 -10.638 0-21.271-5e-3 -31.908-3.4677-9e-3 -6.9354 5e-3 -10.403-9e-3 -9e-3 -4.2654-9e-3 -8.5354 0-12.806 3.4677-0.0141 6.9307 5e-3 10.398-9e-3 0.0141-6.5787-5e-3 -13.153 9e-3 -19.731z" fill="#fff"/><path d="m-333.66 171.33c4.8285-0.62878 9.8962-0.45985 14.467 1.3655 3.7023 1.464 6.8462 4.3311 8.5073 7.963 2.548 5.5042 3.524 11.581 4.0167 17.582 0.53493 7.9864 0.45986 16.048-0.64285 23.987-0.77425 4.7252-1.877 9.7038-5.0772 13.43-3.2471 3.7398-8.2539 5.3446-13.059 5.72-5.0678 0.37069-10.412 0-14.987-2.3978-2.67-1.4218-4.9364-3.6507-6.2596-6.3816-1.6048-3.2706-2.487-6.8415-3.1064-10.417-1.8676-11.337-2.318-23.068 0.23462-34.339 1.0511-4.2513 2.5808-8.6152 5.6872-11.82 2.7028-2.745 6.4661-4.1622 10.22-4.6924z" fill="#41cd52"/></g><g><path d="m151.15 198.44h205.69c5.366 0 9.368-4.943 8.266-10.195-6.804-32.428-27.45-59.756-55.465-75.543l17.584-31.727c1.19-2.148 0.414-4.855-1.734-6.045-2.153-1.193-4.856-0.414-6.046 1.734l-17.717 31.966c-14.511-6.734-30.683-10.495-47.734-10.495-17.052 0-33.224 3.761-47.735 10.495l-17.717-31.967c-1.191-2.149-3.898-2.924-6.045-1.734-2.148 1.19-2.924 3.897-1.734 6.045l17.584 31.727c-28.015 15.788-48.661 43.115-55.465 75.544-1.103 5.252 2.899 10.195 8.266 10.195zm164.22-47.283c0 5.282-4.282 9.565-9.565 9.565-5.282 0-9.565-4.282-9.565-9.565 0-5.282 4.282-9.565 9.565-9.565s9.565 4.283 9.565 9.565zm-113.19-9.565c5.282 0 9.565 4.282 9.565 9.565 0 5.282-4.282 9.565-9.565 9.565-5.282 0-9.565-4.282-9.565-9.565 0-5.282 4.282-9.565 9.565-9.565z" fill="#41cd52"/><circle cx="202.21" cy="151.2" r="9.5232" fill="#fff" style="paint-order:fill markers stroke"/><circle cx="305.76" cy="151.13" r="9.5232" fill="#fff" style="paint-order:fill markers stroke"/></g></g></svg>
